# xmcd CD database file
#
# Track frame offsets:
#	165
#	21265
#	48065
#	69840
#	110134
#	134584
#	171083
#	199066
#	236769
#
# Disc length: 3457 seconds
#
# Revision: 0
# Processed by: cddbd v1.4PL0 Copyright (c) Steve Scherf et al.
# Submitted via: CDex 1.50Beta7
#
DISCID=7b0d7f09
DTITLE=Grant Green Jr - Introducing GG
DYEAR=2002
DGENRE=Jazz
TTITLE0=Cantaloupe Woman
TTITLE1=Selma March
TTITLE2=Another Time Another Place
TTITLE3=Can You Feel It
TTITLE4=Umberto 7.4
TTITLE5=Deep River
TTITLE6=People Make The World Go Round
TTITLE7=For The Love Of You
TTITLE8=6 Grams Of Funk
EXTD=YEAR: 2002
EXTT0=
EXTT1=
EXTT2=
EXTT3=
EXTT4=
EXTT5=
EXTT6=
EXTT7=
EXTT8=
PLAYORDER=
